<?xml version="1.0" encoding="UTF-8" ?>
<!DOCTYPE svg PUBLIC "-//W3C//DTD SVG 1.1//EN" "http://www.w3.org/Graphics/SVG/1.1/DTD/svg11.dtd">
<svg width="843pt" height="839pt" viewBox="0 0 843 839" version="1.1" xmlns="http://www.w3.org/2000/svg">
<g id="#24998bfd">
<path fill="#24998b" opacity="1.00" d=" M 291.75 188.15 C 378.23 187.87 464.72 187.97 551.20 188.09 C 527.44 212.26 503.38 236.12 479.38 260.04 C 470.42 250.86 461.30 241.83 452.33 232.67 C 445.05 225.11 435.85 218.31 425.01 217.69 C 414.87 216.35 404.22 219.68 396.84 226.84 C 385.37 237.58 374.71 249.15 363.38 260.05 C 339.68 235.90 315.49 212.25 291.75 188.15 Z" />
<path fill="#24998b" opacity="1.00" d=" M 589.24 188.14 C 610.48 187.89 631.73 187.98 652.97 188.01 C 652.74 204.95 653.72 221.92 652.67 238.82 C 650.80 241.82 648.25 244.29 645.83 246.83 C 615.73 276.51 586.09 306.66 556.01 336.37 C 536.77 317.37 517.65 298.23 498.63 279.01 C 528.67 248.56 559.18 218.57 589.24 188.14 Z" />
<path fill="#24998b" opacity="1.00" d=" M 198.19 245.11 C 204.69 217.96 227.71 195.49 255.00 189.59 C 284.86 219.32 314.69 249.08 344.37 278.99 C 325.37 298.23 306.23 317.35 287.01 336.37 C 258.57 308.35 230.63 279.82 202.14 251.85 C 200.58 249.89 197.59 248.00 198.19 245.11 Z" />
<path fill="#24998b" opacity="1.00" d=" M 414.79 246.76 C 418.15 243.57 424.12 243.16 427.56 246.49 C 439.06 256.72 449.40 268.19 460.37 278.99 C 450.67 288.75 441.11 298.66 431.27 308.29 C 428.54 311.00 425.18 313.85 421.10 313.76 C 416.32 313.29 413.07 309.27 409.71 306.31 C 400.60 297.29 391.65 288.11 382.63 279.01 C 393.37 268.28 403.81 257.24 414.79 246.76 Z" />
<path fill="#24998b" opacity="1.00" d=" M 574.63 355.01 C 600.61 329.12 626.06 302.67 652.69 277.47 C 653.33 368.04 652.96 458.62 652.88 549.19 C 626.74 523.41 600.85 497.39 574.97 471.36 C 585.70 460.64 596.83 450.28 607.03 439.04 C 620.18 425.67 620.72 401.96 607.62 388.36 C 597.02 376.86 585.40 366.35 574.63 355.01 Z" />
<path fill="#24998b" opacity="1.00" d=" M 196.07 283.82 C 220.26 307.53 244.12 331.59 267.99 355.63 C 258.85 364.61 249.82 373.70 240.67 382.67 C 234.98 388.18 229.83 394.59 227.15 402.12 C 224.83 412.59 224.92 424.43 231.61 433.37 C 242.11 447.47 255.87 458.70 267.99 471.37 C 244.15 495.43 220.22 519.41 196.12 543.21 C 195.89 456.75 195.98 370.28 196.07 283.82 Z" />
<path fill="#24998b" opacity="1.00" d=" M 363.37 298.05 C 374.25 308.37 384.44 319.38 395.30 329.70 C 408.42 343.17 432.23 343.83 445.97 330.96 C 457.78 320.58 468.24 308.79 479.63 297.96 C 498.59 317.35 518.00 336.30 537.05 355.62 C 526.40 366.12 515.72 376.58 505.23 387.24 C 492.25 399.53 490.55 422.11 502.20 435.84 C 512.86 448.64 525.65 459.48 537.04 471.63 C 511.44 496.95 485.98 522.42 460.63 547.99 C 492.68 580.44 525.17 612.43 557.25 644.85 C 516.17 645.18 475.08 644.93 434.00 644.99 C 434.07 595.07 433.83 545.16 434.13 495.24 C 451.77 477.90 469.11 460.26 486.69 442.86 C 481.76 433.89 479.20 423.91 477.92 413.82 C 463.10 428.07 448.85 442.89 434.15 457.25 C 433.80 425.22 434.12 393.18 433.98 361.14 C 424.99 361.74 415.89 362.09 407.01 360.31 C 406.90 392.27 407.17 424.23 406.88 456.19 C 393.56 443.29 380.63 429.99 367.43 416.97 C 365.51 426.75 362.06 436.13 357.75 445.09 C 372.29 459.93 387.02 474.60 401.87 489.14 C 404.43 491.83 407.85 494.65 406.78 499.01 C 407.37 547.66 406.81 596.33 406.99 644.99 C 366.49 644.84 325.99 645.36 285.50 644.70 C 316.95 611.56 350.07 580.01 382.04 547.37 C 356.54 522.18 331.25 496.78 305.96 471.38 C 317.24 459.87 329.43 449.19 339.83 436.86 C 348.97 426.59 350.49 411.12 345.39 398.65 C 342.25 391.30 336.36 385.73 330.81 380.19 C 322.44 372.00 314.16 363.73 305.96 355.37 C 325.24 336.41 344.29 317.21 363.37 298.05 Z" />
<path fill="#24998b" opacity="1.00" d=" M 555.37 374.05 C 566.02 384.60 576.84 394.98 587.25 405.77 C 590.57 409.19 592.15 414.88 588.86 418.88 C 578.81 430.87 566.90 441.16 556.01 452.37 C 545.74 442.17 535.35 432.09 525.19 421.79 C 522.18 419.14 520.58 415.16 520.99 411.13 C 522.87 406.36 526.69 402.79 530.17 399.17 C 538.56 390.79 547.11 382.56 555.37 374.05 Z" />
<path fill="#24998b" opacity="1.00" d=" M 254.49 407.44 C 264.71 395.94 276.20 385.63 286.95 374.63 C 297.12 384.61 307.26 394.61 317.33 404.70 C 319.78 407.08 322.26 410.22 321.85 413.86 C 321.23 418.62 317.31 421.91 314.31 425.29 C 305.29 434.40 296.11 443.35 287.01 452.37 C 276.32 441.60 265.14 431.30 254.88 420.12 C 251.76 416.73 251.08 410.88 254.49 407.44 Z" />
<path fill="#24998b" opacity="1.00" d=" M 196.33 580.53 C 227.17 551.23 256.56 520.41 286.95 490.63 C 306.24 509.60 325.34 528.76 344.37 547.99 C 313.84 578.93 282.84 609.39 252.33 640.34 C 249.72 642.66 247.20 646.09 243.00 644.83 C 227.34 645.48 211.68 644.86 196.02 644.98 C 196.02 623.49 195.75 602.00 196.33 580.53 Z" />
<path fill="#24998b" opacity="1.00" d=" M 498.64 548.00 C 517.62 528.75 536.78 509.69 555.95 490.63 C 588.28 522.35 619.86 554.85 652.28 586.49 C 649.35 613.54 627.93 638.08 600.90 642.84 C 598.76 643.35 596.62 643.84 594.49 644.30 C 562.87 611.87 530.39 580.29 498.64 548.00 Z" />
</g>
</svg>
