<?xml version="1.0" encoding="UTF-8"?>
<!DOCTYPE svg PUBLIC "-//W3C//DTD SVG 1.1//EN" "http://www.w3.org/Graphics/SVG/1.1/DTD/svg11.dtd">
<svg xmlns="http://www.w3.org/2000/svg" version="1.1" width="3471px" height="3470px" style="shape-rendering:geometricPrecision; text-rendering:geometricPrecision; image-rendering:optimizeQuality; fill-rule:evenodd; clip-rule:evenodd" xmlns:xlink="http://www.w3.org/1999/xlink">
<g><path style="opacity:0.996" fill="#24998a" d="M 965.5,-0.5 C 1494.5,-0.5 2023.5,-0.5 2552.5,-0.5C 2600.33,0.332737 2648.33,0.832737 2696.5,1C 2515.69,184.139 2333.86,366.306 2151,547.5C 2073.83,469.667 1996.67,391.833 1919.5,314C 1896.3,292.404 1870.97,273.738 1843.5,258C 1788.98,228.801 1730.98,218.134 1669.5,226C 1618.11,233.374 1572.77,253.707 1533.5,287C 1452.53,365.639 1372.53,445.305 1293.5,526C 1285.68,532.983 1278.02,540.15 1270.5,547.5C 1089.85,365.347 908.681,183.681 727,2.5C 726.833,2.16667 726.667,1.83333 726.5,1.5C 806.332,0.833333 885.999,0.166667 965.5,-0.5 Z"/></g>
<g><path style="opacity:0.998" fill="#24998a" d="M 3041.5,-0.5 C 3183.83,-0.5 3326.17,-0.5 3468.5,-0.5C 3468.31,66.3393 3468.97,133.006 3470.5,199.5C 3470.5,227.833 3470.5,256.167 3470.5,284.5C 3469.8,318.379 3468.3,352.379 3466,386.5C 3458.43,398.068 3450.1,409.068 3441,419.5C 3205.53,655.306 2969.69,890.806 2733.5,1126C 2732.83,1126.67 2732.17,1126.67 2731.5,1126C 2585.65,981.653 2440.65,836.486 2296.5,690.5C 2525.32,460.514 2754.32,230.68 2983.5,1C 3003,0.83179 3022.34,0.33179 3041.5,-0.5 Z"/></g>
<g><path style="opacity:0.997" fill="#24998a" d="M 445.5,11.5 C 446.873,11.3433 448.207,11.51 449.5,12C 675.708,237.707 901.374,463.874 1126.5,690.5C 982.861,837.139 837.861,982.472 691.5,1126.5C 650.014,1086.18 608.681,1045.68 567.5,1005C 393.973,829.806 219.473,655.639 44,482.5C 37,474.833 30,467.167 23,459.5C 16.5936,450.723 14.5936,441.057 17,430.5C 54.2839,293.344 130.451,183.511 245.5,101C 306.369,58.4027 373.035,28.5694 445.5,11.5 Z"/></g>
<g><path style="opacity:0.995" fill="#24998a" d="M 1705.5,425.5 C 1727.2,424.343 1745.87,431.176 1761.5,446C 1781.83,465 1802.17,484 1822.5,503C 1884.4,565.401 1946.07,627.901 2007.5,690.5C 1930.32,769.179 1852.65,847.346 1774.5,925C 1760.66,937.925 1744.66,947.258 1726.5,953C 1708.3,956.868 1691.3,953.868 1675.5,944C 1670.17,940.333 1664.83,936.667 1659.5,933C 1654.5,928.667 1649.5,924.333 1644.5,920C 1567.29,844.624 1491.29,768.124 1416.5,690.5C 1497.29,606.876 1579.29,524.376 1662.5,443C 1675.27,433.137 1689.6,427.304 1705.5,425.5 Z"/></g>
<g><path style="opacity:0.997" fill="#24998a" d="M 3465.5,678.5 C 3467.12,757.327 3467.96,836.327 3468,915.5C 3469.88,1524.17 3469.71,2132.83 3467.5,2741.5C 3268.86,2545.86 3071.53,2348.86 2875.5,2150.5C 2940.77,2086.74 3005.6,2022.4 3070,1957.5C 3089.33,1936.83 3108.67,1916.17 3128,1895.5C 3182.75,1828.87 3204.42,1752.54 3193,1666.5C 3185.21,1613.93 3164.21,1567.6 3130,1527.5C 3112.33,1508.83 3094.67,1490.17 3077,1471.5C 3011.03,1406.53 2945.36,1341.19 2880,1275.5C 2878.02,1272.69 2875.86,1270.02 2873.5,1267.5C 3019.6,1118.9 3166.6,971.069 3314.5,824C 3364.43,774.905 3414.76,726.405 3465.5,678.5 Z"/></g>
<g><path style="opacity:0.996" fill="#24998a" d="M -0.5,2277.5 C -0.5,1906.17 -0.5,1534.83 -0.5,1163.5C 0.333141,1018 0.833141,872.334 1,726.5C 75.1387,798.972 148.972,871.805 222.5,945C 330.833,1054 439.167,1163 547.5,1272C 471.333,1347.5 395.167,1423 319,1498.5C 289.21,1529.64 264.877,1564.64 246,1603.5C 242.723,1611.06 239.723,1618.72 237,1626.5C 227.513,1667.75 224.847,1709.42 229,1751.5C 233.472,1791.42 247.139,1827.75 270,1860.5C 314.435,1917.29 362.935,1970.79 415.5,2021C 460.247,2062.75 504.081,2105.58 547,2149.5C 547.667,2150.17 547.667,2150.83 547,2151.5C 365.973,2334.19 183.973,2515.86 1,2696.5C 0.833132,2556.67 0.333132,2417 -0.5,2277.5 Z"/></g>
<g><path style="opacity:0.997" fill="#24998a" d="M 2152.5,833.5 C 2297.63,980.132 2443.3,1126.3 2589.5,1272C 2505.67,1353.83 2422.5,1436.33 2340,1519.5C 2290.74,1573.73 2265.91,1637.73 2265.5,1711.5C 2265.38,1767.4 2280.88,1818.4 2312,1864.5C 2337.22,1895.39 2363.55,1925.39 2391,1954.5C 2450.67,2013.5 2510.33,2072.5 2570,2131.5C 2576.18,2138.35 2582.35,2145.18 2588.5,2152C 2395.21,2344.96 2202.21,2538.29 2009.5,2732C 2253.83,2977 2498.17,3222 2742.5,3467C 2430.5,3468.44 2118.5,3468.94 1806.5,3468.5C 1806.43,3258.33 1806.09,3048.17 1805.5,2838C 1805.74,2669.83 1806.24,2501.67 1807,2333.5C 1807.33,2332.5 1807.67,2331.5 1808,2330.5C 1941.04,2198.63 2073.54,2066.29 2205.5,1933.5C 2179.92,1886.26 2161.75,1836.26 2151,1783.5C 2146.35,1760.94 2142.35,1738.28 2139,1715.5C 2120.17,1733.67 2101.33,1751.83 2082.5,1770C 1991.31,1861.53 1899.81,1952.69 1808,2043.5C 1806.39,1943.18 1805.56,1842.85 1805.5,1742.5C 1806.6,1599.99 1806.6,1457.32 1805.5,1314.5C 1756.53,1318.56 1707.53,1319.06 1658.5,1316C 1639.69,1314.48 1621.02,1311.98 1602.5,1308.5C 1602.41,1510.16 1602.24,1711.83 1602,1913.5C 1601.83,1954.17 1601.33,1994.84 1600.5,2035.5C 1572.68,2008.85 1545.01,1982.01 1517.5,1955C 1446.33,1882.5 1374.5,1810.67 1302,1739.5C 1286.05,1813.03 1261.55,1883.53 1228.5,1951C 1343.36,2067.53 1459.19,2183.03 1576,2297.5C 1582.39,2303.95 1588.05,2310.95 1593,2318.5C 1596.5,2324.5 1599.17,2330.83 1601,2337.5C 1602.32,2714.49 1602.82,3091.49 1602.5,3468.5C 1340.83,3468.67 1079.17,3468.5 817.5,3468C 771.486,3467.83 725.486,3467 679.5,3465.5C 696.85,3447.32 714.017,3428.98 731,3410.5C 769.03,3372.14 806.696,3333.47 844,3294.5C 1033.83,3106 1223,2916.83 1411.5,2727C 1218.01,2536.01 1025.68,2343.85 834.5,2150.5C 900.207,2084.96 966.041,2019.63 1032,1954.5C 1058.45,1926.39 1083.78,1897.39 1108,1867.5C 1148.44,1805.97 1163.11,1738.63 1152,1665.5C 1145.85,1623.89 1130.85,1585.89 1107,1551.5C 1088.2,1526.35 1067.53,1502.69 1045,1480.5C 973.681,1411.68 903.514,1341.68 834.5,1270.5C 980.167,1125.5 1125.5,980.167 1270.5,834.5C 1347.96,910.458 1424.96,986.958 1501.5,1064C 1558.24,1123.77 1628.08,1153.94 1711,1154.5C 1770.62,1154.73 1824.79,1137.89 1873.5,1104C 1904.06,1078.44 1933.73,1051.78 1962.5,1024C 2025.37,959.966 2088.7,896.466 2152.5,833.5 Z"/></g>
<g><path style="opacity:0.995" fill="#24998a" d="M 2726.5,1411.5 C 2736.28,1420.1 2745.94,1428.94 2755.5,1438C 2829.72,1510.89 2903.22,1584.39 2976,1658.5C 2992.81,1679.4 2998.81,1703.07 2994,1729.5C 2992.59,1734.74 2990.59,1739.74 2988,1744.5C 2977.04,1758.46 2965.71,1772.13 2954,1785.5C 2925.53,1815.64 2896.7,1845.47 2867.5,1875C 2822.35,1918.65 2777.35,1962.49 2732.5,2006.5C 2649.9,1926.4 2568.07,1845.4 2487,1763.5C 2469.96,1742.04 2463.29,1717.71 2467,1690.5C 2475.61,1671.91 2486.61,1654.91 2500,1639.5C 2511,1627.83 2522,1616.17 2533,1604.5C 2568.83,1569.33 2604.67,1534.17 2640.5,1499C 2669.73,1470.27 2698.4,1441.1 2726.5,1411.5 Z"/></g>
<g><path style="opacity:0.995" fill="#24998a" d="M 689.5,1415.5 C 771.693,1494.19 852.86,1574.19 933,1655.5C 961.976,1687.21 963.976,1720.54 939,1755.5C 933.333,1762.5 927.667,1769.5 922,1776.5C 893.225,1807.28 863.725,1837.44 833.5,1867C 786.293,1913.87 738.793,1960.37 691,2006.5C 625.04,1942.21 559.374,1877.54 494,1812.5C 478.033,1794.86 461.699,1777.53 445,1760.5C 425.71,1735.76 421.71,1708.76 433,1679.5C 435.333,1675.83 437.667,1672.17 440,1668.5C 466.634,1639.53 493.634,1610.86 521,1582.5C 561.529,1542.3 602.362,1502.47 643.5,1463C 659.4,1447.6 674.733,1431.77 689.5,1415.5 Z"/></g>
<g><path style="opacity:0.997" fill="#24998a" d="M 376.5,3469.5 C 372.5,3469.5 368.5,3469.5 364.5,3469.5C 359.587,3467.99 354.421,3467.33 349,3467.5C 332.332,3467.99 315.832,3468.66 299.5,3469.5C 245.167,3469.5 190.833,3469.5 136.5,3469.5C 91.3364,3468.5 46.0031,3468.17 0.5,3468.5C 0.829616,3452.66 0.496282,3436.99 -0.5,3421.5C -0.5,3320.83 -0.5,3220.17 -0.5,3119.5C 0.213657,3072.32 1.38032,3024.98 3,2977.5C 65.7746,2918.06 127.941,2857.89 189.5,2797C 352.194,2633.31 515.194,2469.97 678.5,2307C 682.466,2304.04 686.133,2300.7 689.5,2297C 690.5,2296.33 691.5,2296.33 692.5,2297C 838.207,2441.04 982.873,2586.04 1126.5,2732C 1102.01,2757.15 1077.51,2782.32 1053,2807.5C 841.473,3018.69 630.306,3230.19 419.5,3442C 412.084,3449.42 404.084,3456.09 395.5,3462C 389.396,3465.42 383.063,3467.92 376.5,3469.5 Z"/></g>
<g><path style="opacity:0.997" fill="#24998a" d="M 2730.5,2296.5 C 2731.55,2296.35 2732.55,2296.52 2733.5,2297C 2786.5,2349.33 2839.5,2401.67 2892.5,2454C 3081.69,2644.86 3271.86,2834.69 3463,3023.5C 3454.48,3100.05 3429.48,3170.72 3388,3235.5C 3301.43,3366.24 3179.93,3442.07 3023.5,3463C 2975.7,3413.53 2927.53,3364.36 2879,3315.5C 2716.64,3152.81 2553.97,2990.47 2391,2828.5C 2359.5,2796.33 2328,2764.17 2296.5,2732C 2331.67,2696.17 2366.83,2660.33 2402,2624.5C 2511.39,2514.94 2620.89,2405.6 2730.5,2296.5 Z"/></g>
</svg>
